<svg width="24" height="24" viewBox="0 0 24 24" fill="none" xmlns="http://www.w3.org/2000/svg">
<path fill-rule="evenodd" clip-rule="evenodd" d="M9.6 4.79999C6.94903 4.79999 4.8 6.94903 4.8 9.59999C4.8 12.251 6.94903 14.4 9.6 14.4C12.251 14.4 14.4 12.251 14.4 9.59999C14.4 6.94903 12.251 4.79999 9.6 4.79999ZM2.4 9.59999C2.4 5.62354 5.62355 2.39999 9.6 2.39999C13.5765 2.39999 16.8 5.62354 16.8 9.59999C16.8 11.155 16.3071 12.5949 15.4689 13.7718L21.2485 19.5515C21.7172 20.0201 21.7172 20.7799 21.2485 21.2485C20.7799 21.7172 20.0201 21.7172 19.5515 21.2485L13.7718 15.4689C12.5949 16.307 11.155 16.8 9.6 16.8C5.62355 16.8 2.4 13.5764 2.4 9.59999Z" fill="#393837"/>
</svg>
